<svg xmlns="http://www.w3.org/2000/svg" width="400" height="400" viewBox="0 0 400 400" role="img" aria-label="Placeholder  replace with your UPI QR code">
  <rect width="400" height="400" fill="#ffffff"/>
  <rect x="24" y="24" width="352" height="352" rx="16" fill="none" stroke="#d4d4d8" stroke-width="2" stroke-dasharray="8 6"/>
  <!-- decorative QR-like grid -->
  <g fill="#18181b" opacity="0.85">
    <rect x="56" y="56" width="72" height="72" rx="6"/>
    <rect x="272" y="56" width="72" height="72" rx="6"/>
    <rect x="56" y="272" width="72" height="72" rx="6"/>
    <rect x="160" y="160" width="24" height="24"/>
    <rect x="200" y="160" width="16" height="16"/>
    <rect x="232" y="160" width="24" height="24"/>
    <rect x="160" y="200" width="16" height="16"/>
    <rect x="192" y="200" width="32" height="32" rx="4"/>
    <rect x="240" y="200" width="16" height="16"/>
    <rect x="160" y="240" width="24" height="24"/>
    <rect x="208" y="240" width="16" height="16"/>
    <rect x="240" y="240" width="24" height="24"/>
    <rect x="272" y="272" width="16" height="16"/>
    <rect x="304" y="272" width="24" height="24"/>
    <rect x="272" y="304" width="24" height="24"/>
    <rect x="312" y="312" width="16" height="16"/>
  </g>
  <text x="200" y="368" text-anchor="middle" font-family="system-ui, sans-serif" font-size="13" fill="#71717a">Replace with public/support-qr.png</text>
</svg>
